<svg width="25" height="28" viewBox="0 0 25 28" fill="none" xmlns="http://www.w3.org/2000/svg">
<path fill-rule="evenodd" clip-rule="evenodd" d="M21.1538 15.5179C21.3462 16.6964 21.5385 17.6786 21.9231 18.8571L23.0769 22.1964L22.1154 23.5714H15.3846C15.3846 24.5536 15 25.5357 14.2308 26.3214C13.4615 27.1071 12.5 27.5 11.5385 27.5C10.5769 27.5 9.42308 27.1071 8.84615 26.3214C8.07692 25.5357 7.69231 24.5536 7.69231 23.5714H0.961538L0 22.1964L1.15385 18.8571C1.53846 17.2857 1.92308 15.7143 1.92308 14.1429V9.82143C1.92308 8.44643 2.11538 7.07143 2.69231 5.89286C3.26923 4.51786 4.03846 3.53571 5 2.55357C5.96154 1.57143 7.11538 0.982143 8.46154 0.589286C9.42308 0.196428 10.5769 0 11.5385 0C11.1538 0.589286 10.7692 1.375 10.3846 2.16071C10 2.16071 9.61538 2.16071 9.03846 2.55357C8.07692 2.75 7.11538 3.33929 6.34615 4.125C5.57692 4.71429 4.80769 5.69643 4.42308 6.67857C4.03846 7.66071 3.84615 8.64286 3.84615 9.82143V14.1429C3.84615 15.9107 3.46154 17.6786 3.07692 19.4464L2.30769 21.6071H20.7692L20 19.4464C19.6635 18.4132 19.4731 17.2268 19.3019 16.1582L19.2308 15.7143C20 15.7143 20.5769 15.7143 21.1538 15.5179ZM11.5385 25.5357C11.9231 25.5357 12.5 25.3393 12.8846 24.9464C13.2692 24.5536 13.4615 24.1607 13.4615 23.5714H9.61538C9.61538 24.1607 9.80769 24.5536 10.1923 24.9464C10.5769 25.3393 11.1538 25.5357 11.5385 25.5357ZM25 5.89286C25 7.45574 24.3922 8.95461 23.3102 10.0597C22.2283 11.1649 20.7609 11.7857 19.2308 11.7857C17.7007 11.7857 16.2332 11.1649 15.1513 10.0597C14.0694 8.95461 13.4615 7.45574 13.4615 5.89286C13.4615 4.32997 14.0694 2.8311 15.1513 1.72598C16.2332 0.620853 17.7007 0 19.2308 0C20.7609 0 22.2283 0.620853 23.3102 1.72598C24.3922 2.8311 25 4.32997 25 5.89286Z" fill="#121212"/>
<path d="M20.52 9H19.25V4.10449L17.7339 4.57471V3.54199L20.3838 2.59277H20.52V9Z" fill="#E5E5E5"/>
</svg>
