<svg width="19" height="20" viewBox="0 0 19 20" fill="none" xmlns="http://www.w3.org/2000/svg">
<path d="M0.807729 0C0.593506 0 0.388057 0.0851 0.236579 0.236579C0.0851 0.388057 0 0.593506 0 0.807729C0 1.02195 0.0851 1.2274 0.236579 1.37888C0.388057 1.53036 0.593506 1.61546 0.807729 1.61546H1.20513C1.38052 1.61576 1.55105 1.67315 1.69094 1.77894C1.83084 1.88474 1.93249 2.03319 1.98055 2.20187L4.54267 11.1677C4.68758 11.6736 4.99329 12.1187 5.41357 12.4355C5.83385 12.7523 6.34585 12.9237 6.87216 12.9237H14.2532C14.7376 12.9237 15.2109 12.7787 15.612 12.5071C16.0131 12.2356 16.3237 11.85 16.5035 11.4003L18.8847 5.44571C18.9826 5.20069 19.019 4.93542 18.9907 4.67309C18.9624 4.41075 18.8702 4.15935 18.7223 3.94084C18.5744 3.72234 18.3753 3.54339 18.1422 3.41963C17.9092 3.29588 17.6494 3.23108 17.3856 3.23092H3.95464L3.53301 1.75762C3.38847 1.25161 3.08313 0.806414 2.66315 0.489317C2.24317 0.172219 1.73138 0.000459385 1.20513 0H0.807729ZM6.09674 10.7218L4.41666 4.84638H17.3839L15.0028 10.801C14.9428 10.9507 14.8393 11.079 14.7057 11.1694C14.5721 11.2598 14.4145 11.3082 14.2532 11.3082H6.87216C6.69677 11.3079 6.52624 11.2505 6.38635 11.1447C6.24645 11.0389 6.1448 10.8905 6.09674 10.7218V10.7218Z" fill="#121212"/>
<path d="M7.26956 19.3856C7.58778 19.3856 7.90288 19.3229 8.19688 19.2011C8.49087 19.0793 8.758 18.9008 8.98301 18.6758C9.20803 18.4508 9.38652 18.1837 9.5083 17.8897C9.63007 17.5957 9.69275 17.2806 9.69275 16.9624C9.69275 16.6442 9.63007 16.3291 9.5083 16.0351C9.38652 15.7411 9.20803 15.4739 8.98301 15.2489C8.758 15.0239 8.49087 14.8454 8.19688 14.7236C7.90288 14.6019 7.58778 14.5392 7.26956 14.5392C6.62689 14.5392 6.01055 14.7945 5.55611 15.2489C5.10167 15.7034 4.84637 16.3197 4.84637 16.9624C4.84637 17.605 5.10167 18.2214 5.55611 18.6758C6.01055 19.1303 6.62689 19.3856 7.26956 19.3856V19.3856ZM7.26956 17.7701C7.05534 17.7701 6.84989 17.685 6.69841 17.5335C6.54693 17.382 6.46183 17.1766 6.46183 16.9624C6.46183 16.7481 6.54693 16.5427 6.69841 16.3912C6.84989 16.2397 7.05534 16.1546 7.26956 16.1546C7.48379 16.1546 7.68923 16.2397 7.84071 16.3912C7.99219 16.5427 8.07729 16.7481 8.07729 16.9624C8.07729 17.1766 7.99219 17.382 7.84071 17.5335C7.68923 17.685 7.48379 17.7701 7.26956 17.7701Z" fill="#121212"/>
<path d="M13.7314 19.3856C14.0496 19.3856 14.3647 19.3229 14.6587 19.2011C14.9527 19.0793 15.2198 18.9008 15.4449 18.6758C15.6699 18.4508 15.8484 18.1837 15.9701 17.8897C16.0919 17.5957 16.1546 17.2806 16.1546 16.9624C16.1546 16.6442 16.0919 16.3291 15.9701 16.0351C15.8484 15.7411 15.6699 15.4739 15.4449 15.2489C15.2198 15.0239 14.9527 14.8454 14.6587 14.7236C14.3647 14.6019 14.0496 14.5392 13.7314 14.5392C13.0887 14.5392 12.4724 14.7945 12.0179 15.2489C11.5635 15.7034 11.3082 16.3197 11.3082 16.9624C11.3082 17.605 11.5635 18.2214 12.0179 18.6758C12.4724 19.1303 13.0887 19.3856 13.7314 19.3856V19.3856ZM13.7314 17.7701C13.5172 17.7701 13.3117 17.685 13.1602 17.5335C13.0088 17.382 12.9237 17.1766 12.9237 16.9624C12.9237 16.7481 13.0088 16.5427 13.1602 16.3912C13.3117 16.2397 13.5172 16.1546 13.7314 16.1546C13.9456 16.1546 14.1511 16.2397 14.3026 16.3912C14.454 16.5427 14.5391 16.7481 14.5391 16.9624C14.5391 17.1766 14.454 17.382 14.3026 17.5335C14.1511 17.685 13.9456 17.7701 13.7314 17.7701Z" fill="#121212"/>
</svg>
