<svg width="35" height="35" viewBox="0 0 35 35" fill="none" xmlns="http://www.w3.org/2000/svg">
<path d="M17.5 0C27.1652 0 35 7.8365 35 17.5C35 27.1635 27.1652 35 17.5 35C7.83475 35 0 27.1635 0 17.5C0 7.8365 7.83475 0 17.5 0ZM17.5035 22.757C17.2694 22.7496 17.0362 22.7893 16.8177 22.8738C16.5992 22.9583 16.3999 23.0858 16.2317 23.2488C16.0635 23.4118 15.9297 23.6069 15.8384 23.8226C15.747 24.0383 15.6999 24.2701 15.6999 24.5044C15.6999 24.7386 15.747 24.9705 15.8384 25.1862C15.9297 25.4018 16.0635 25.597 16.2317 25.76C16.3999 25.923 16.5992 26.0505 16.8177 26.135C17.0362 26.2194 17.2694 26.2592 17.5035 26.2517C17.9574 26.2374 18.3878 26.047 18.7038 25.7209C19.0198 25.3947 19.1964 24.9585 19.1964 24.5044C19.1964 24.0503 19.0198 23.614 18.7038 23.2879C18.3878 22.9618 17.9574 22.7714 17.5035 22.757V22.757ZM17.5 8.75C17.0711 8.75011 16.6572 8.90772 16.3368 9.19291C16.0165 9.47809 15.812 9.87099 15.7622 10.297L15.75 10.5L15.7535 19.2518L15.7657 19.4565C15.8163 19.8818 16.0212 20.2738 16.3414 20.5583C16.6617 20.8427 17.0752 20.9998 17.5035 20.9998C17.9318 20.9998 18.3453 20.8427 18.6656 20.5583C18.9858 20.2738 19.1907 19.8818 19.2412 19.4565L19.2535 19.2518L19.25 10.5L19.2378 10.2952C19.1876 9.86956 18.983 9.47708 18.6627 9.19225C18.3423 8.90742 17.9286 8.75006 17.5 8.75Z" fill="#B94343"/>
</svg>
