<svg width="20" height="20" viewBox="0 0 20 20" fill="none" xmlns="http://www.w3.org/2000/svg">
<path d="M2.01405 0H17.9859C18.548 0 19.0242 0.195618 19.4145 0.586854C19.8048 0.978091 20 1.43975 20 1.97183V18.0282C20 18.5603 19.8048 19.0219 19.4145 19.4131C19.0242 19.8044 18.548 20 17.9859 20H12.8337C12.6151 19.9687 12.5059 19.6401 12.5059 19.0141V16.2911C12.5059 15.446 12.2717 14.82 11.8033 14.4131C13.1772 14.2567 14.2779 13.8341 15.1054 13.1455C15.9329 12.457 16.3466 11.2363 16.3466 9.48357C16.3466 8.4507 16.0031 7.55869 15.3162 6.80751C15.6596 5.99374 15.6284 5.10172 15.2225 4.13146C14.6604 3.94366 13.7549 4.28795 12.5059 5.16432C11.694 4.94523 10.8509 4.83568 9.97658 4.83568C9.10226 4.83568 8.27479 4.94523 7.49415 5.16432C6.93208 4.78873 6.42467 4.51487 5.9719 4.34272C5.51913 4.17058 5.19906 4.10016 5.01171 4.13146H4.73068C4.35597 5.10172 4.32475 5.99374 4.637 6.80751C3.95004 7.55869 3.60656 8.4507 3.60656 9.48357C3.60656 11.205 4.0281 12.4178 4.87119 13.1221C5.71429 13.8263 6.80718 14.2567 8.14988 14.4131C7.8064 14.7261 7.60343 15.18 7.54098 15.7746C6.22951 16.338 5.26151 16.0563 4.637 14.9296C4.26229 14.3036 3.74707 13.9593 3.09133 13.8967C3.02888 13.8967 2.95863 13.9045 2.88056 13.9202C2.8025 13.9358 2.71663 13.9906 2.62295 14.0845C2.52927 14.1784 2.65418 14.3192 2.99766 14.507C3.46604 14.7261 3.84075 15.2113 4.12178 15.9624C4.15301 16.025 4.18423 16.0955 4.21546 16.1737C4.24668 16.252 4.34817 16.4006 4.51991 16.6197C4.69165 16.8388 4.89461 17.0031 5.12881 17.1127C5.363 17.2222 5.68306 17.3239 6.08899 17.4178C6.49493 17.5117 6.96331 17.4804 7.49415 17.3239V19.0141C7.49415 19.6401 7.36924 19.9687 7.11944 20H2.01405C1.45199 20 0.9758 19.8044 0.58548 19.4131C0.19516 19.0219 0 18.5603 0 18.0282V1.97183C0 1.43975 0.19516 0.978091 0.58548 0.586854C0.9758 0.195618 1.45199 0 2.01405 0Z" fill="#484848"/>
</svg>
