<svg width="21" height="20" viewBox="0 0 21 20" fill="none" xmlns="http://www.w3.org/2000/svg">
<path d="M10.5012 8.5945e-07C4.69925 -0.0022943 0 4.59261 0 10.2639C0 14.7487 2.93967 18.5609 7.03363 19.961C7.58496 20.0964 7.5005 19.7131 7.5005 19.4515V17.6727C4.31684 18.0376 4.1878 15.9766 3.9743 15.6323C3.54262 14.9116 2.52206 14.728 2.82706 14.3837C3.55201 14.0188 4.29103 14.4756 5.14736 15.7126C5.76673 16.6101 6.97497 16.4586 7.58731 16.3094C7.72104 15.77 8.00726 15.288 8.40141 14.9139C5.10278 14.3356 3.72796 12.3663 3.72796 10.0252C3.72796 8.88914 4.11038 7.84485 4.86113 7.00253C4.38253 5.61396 4.90571 4.42506 4.97609 4.24834C6.33918 4.12899 7.75623 5.20312 7.8665 5.28804C8.64071 5.08377 9.52519 4.9759 10.5153 4.9759C11.51 4.9759 12.3968 5.08836 13.1781 5.29493C13.4432 5.09754 14.757 4.17489 16.0239 4.28735C16.0919 4.46408 16.6034 5.62543 16.1529 6.99564C16.9131 7.84026 17.3002 8.89374 17.3002 10.0321C17.3002 12.3778 15.916 14.3493 12.608 14.9185C12.8913 15.1911 13.1163 15.5162 13.2698 15.8748C13.4232 16.2334 13.5021 16.6183 13.5018 17.0071V19.5892C13.5206 19.7957 13.5018 20 13.8538 20C18.0087 18.6298 21 14.79 21 10.2662C21 4.59261 16.2984 8.5945e-07 10.5012 8.5945e-07V8.5945e-07Z" fill="#6F6F6F"/>
</svg>
