<svg width="21" height="20" viewBox="0 0 21 20" fill="none" xmlns="http://www.w3.org/2000/svg">
<path d="M10.1678 8.35784e-07C4.55007 -0.00223112 0 4.46615 0 9.98131C0 14.3426 2.84635 18.0498 6.81034 19.4113C7.34417 19.543 7.26239 19.1703 7.26239 18.9158V17.1861C4.17979 17.541 4.05485 15.5367 3.84814 15.2019C3.43016 14.501 2.442 14.3225 2.73731 13.9877C3.43924 13.6328 4.15481 14.077 4.98395 15.28C5.58366 16.1527 6.75355 16.0054 7.34644 15.8603C7.47592 15.3358 7.75306 14.8671 8.1347 14.5033C4.94079 13.9408 3.60962 12.0258 3.60962 9.74919C3.60962 8.64437 3.97989 7.62883 4.70681 6.8097C4.2434 5.45937 4.74997 4.30321 4.81812 4.13135C6.13794 4.01529 7.51 5.05985 7.61677 5.14243C8.3664 4.94379 9.22281 4.83888 10.1814 4.83888C11.1446 4.83888 12.0033 4.94825 12.7597 5.14913C13.0164 4.95718 14.2885 4.05993 15.5152 4.1693C15.5811 4.34116 16.0763 5.47053 15.6402 6.80301C16.3762 7.62437 16.751 8.64884 16.751 9.75589C16.751 12.0369 15.4107 13.9542 12.2077 14.5077C12.4821 14.7728 12.6999 15.089 12.8485 15.4377C12.9971 15.7864 13.0735 16.1607 13.0732 16.5388V19.0498C13.0914 19.2506 13.0732 19.4493 13.414 19.4493C17.437 18.1168 20.3333 14.3827 20.3333 9.98355C20.3333 4.46615 15.781 8.35784e-07 10.1678 8.35784e-07Z" fill="#E5E5E5"/>
</svg>
