<svg width="31" height="28" viewBox="0 0 31 28" fill="none" xmlns="http://www.w3.org/2000/svg">
<path d="M30.25 5.73804C29.769 4.61518 29.0755 3.59764 28.2082 2.74241C27.3403 1.88462 26.317 1.20295 25.194 0.734463C24.0295 0.246742 22.7805 -0.0029008 21.5195 2.54299e-05C19.7504 2.54299e-05 18.0244 0.488444 16.5245 1.41101C16.1656 1.63171 15.8247 1.87411 15.5018 2.13822C15.1788 1.87411 14.8379 1.63171 14.4791 1.41101C12.9791 0.488444 11.2531 2.54299e-05 9.48407 2.54299e-05C8.2102 2.54299e-05 6.9758 0.246044 5.80958 0.734463C4.68283 1.20479 3.66732 1.88134 2.79534 2.74241C1.92694 3.59668 1.23324 4.61445 0.753559 5.73804C0.254775 6.90663 0 8.14758 0 9.4247C0 10.6295 0.24401 11.8849 0.72844 13.162C1.13393 14.2293 1.71524 15.3364 2.45804 16.4543C3.63502 18.2235 5.25338 20.0686 7.26287 21.9391C10.5929 25.0396 13.8906 27.1814 14.0305 27.2683L14.881 27.8182C15.2578 28.0606 15.7422 28.0606 16.119 27.8182L16.9694 27.2683C17.1094 27.1778 20.4035 25.0396 23.7371 21.9391C25.7466 20.0686 27.3649 18.2235 28.5419 16.4543C29.2847 15.3364 29.8696 14.2293 30.2715 13.162C30.756 11.8849 31 10.6295 31 9.4247C31.0036 8.14758 30.7488 6.90663 30.25 5.73804V5.73804Z" fill="#DF1B6C"/>
</svg>
