<svg width="38" height="38" viewBox="0 0 38 38" fill="none" xmlns="http://www.w3.org/2000/svg">
<path d="M19 0C15.2422 0 11.5687 1.11433 8.44417 3.20208C5.31964 5.28982 2.88436 8.25722 1.4463 11.729C0.00823234 15.2008 -0.368031 19.0211 0.365088 22.7067C1.09821 26.3923 2.90778 29.7778 5.56498 32.435C8.22218 35.0922 11.6077 36.9018 15.2933 37.6349C18.9789 38.368 22.7992 37.9918 26.271 36.5537C29.7428 35.1156 32.7102 32.6804 34.7979 29.5558C36.8857 26.4313 38 22.7578 38 19C38 13.9609 35.9982 9.12816 32.435 5.56497C28.8718 2.00178 24.0391 0 19 0V0ZM31.4094 12.6231L15.8056 28.215L6.59063 19C6.27569 18.6851 6.09875 18.2579 6.09875 17.8125C6.09875 17.3671 6.27569 16.9399 6.59063 16.625C6.90558 16.3101 7.33273 16.1331 7.77813 16.1331C8.22353 16.1331 8.65069 16.3101 8.96563 16.625L15.8294 23.4887L29.0581 10.2719C29.2141 10.1159 29.3992 9.99223 29.603 9.90783C29.8067 9.82343 30.0251 9.77999 30.2456 9.77999C30.4662 9.77999 30.6845 9.82343 30.8883 9.90783C31.092 9.99223 31.2772 10.1159 31.4331 10.2719C31.5891 10.4278 31.7128 10.613 31.7972 10.8167C31.8816 11.0205 31.925 11.2388 31.925 11.4594C31.925 11.6799 31.8816 11.8983 31.7972 12.102C31.7128 12.3058 31.5891 12.4909 31.4331 12.6469L31.4094 12.6231Z" fill="#7CB972"/>
</svg>
