<svg width="19" height="19" viewBox="0 0 19 19" fill="none" xmlns="http://www.w3.org/2000/svg">
<path d="M9.5 0C4.25379 0 0 4.25379 0 9.5C0 14.7462 4.25379 19 9.5 19C14.7462 19 19 14.7462 19 9.5C19 4.25379 14.7462 0 9.5 0ZM14.0655 7.16105C14.0719 7.26071 14.0719 7.36462 14.0719 7.46641C14.0719 10.5794 11.7011 14.1652 7.36886 14.1652C6.03292 14.1652 4.79453 13.7771 3.75123 13.1092C3.94208 13.1304 4.12444 13.1388 4.31953 13.1388C5.42221 13.1388 6.43583 12.7656 7.24375 12.1337C6.20893 12.1125 5.33951 11.4339 5.04263 10.5009C5.40525 10.5539 5.73181 10.5539 6.10502 10.4585C5.57219 10.3502 5.09326 10.0608 4.74961 9.6395C4.40596 9.21815 4.21878 8.69082 4.21987 8.1471V8.11741C4.53158 8.29341 4.89844 8.40156 5.28225 8.41641C4.9596 8.20137 4.69499 7.91004 4.51189 7.56825C4.32879 7.22647 4.23285 6.84478 4.23259 6.45703C4.23259 6.01808 4.3471 5.6173 4.55279 5.26953C5.14421 5.99759 5.88222 6.59305 6.71884 7.0172C7.55547 7.44136 8.47198 7.68472 9.40882 7.73147C9.07589 6.13047 10.2719 4.83482 11.7096 4.83482C12.3882 4.83482 12.9989 5.11897 13.4294 5.57701C13.9616 5.47734 14.4705 5.27801 14.9243 5.01083C14.7483 5.5558 14.3794 6.01596 13.8895 6.30647C14.3645 6.25558 14.8225 6.12411 15.2467 5.93962C14.9265 6.41038 14.5257 6.82813 14.0655 7.16105V7.16105Z" fill="#E5E5E5"/>
</svg>
